<svg xmlns="http://www.w3.org/2000/svg" width="69" height="18" viewBox="0 0 69 18"><defs><filter id="yfrra" width="200%" height="200%" x="-50%" y="-50%"><feGaussianBlur in="SourceGraphic" result="FeGaussianBlur1028Out" stdDeviation="6.2 6.2"/></filter><mask id="yfrrb"><path fill="#fff" d="M5.828 4.437h34.969a5.11 5.11 0 0 1 0 10.22H5.828a5.11 5.11 0 1 1 0-10.22zM59.938.094a8.937 8.937 0 1 1 0 17.874 8.937 8.937 0 0 1 0-17.874z"/></mask></defs><g><g><path fill="#eff3f6" d="M5.828 4.437h34.969a5.11 5.11 0 0 1 0 10.22H5.828a5.11 5.11 0 1 1 0-10.22zM59.938.094a8.937 8.937 0 1 1 0 17.874 8.937 8.937 0 0 1 0-17.874z"/><path fill="#eef2f5" d="M5.828 4.437h34.969a5.11 5.11 0 0 1 0 10.22H5.828a5.11 5.11 0 1 1 0-10.22zM59.938.094a8.937 8.937 0 1 1 0 17.874 8.937 8.937 0 0 1 0-17.874z"/><path fill="#4b596f" fill-opacity=".28" stroke="#4b596f" stroke-opacity=".28" stroke-width="1.4" d="M-12.4 30.4v-42.8h93.8v42.8zM.719 9.547a5.11 5.11 0 0 0 5.11 5.11h34.968a5.11 5.11 0 1 0 0-10.22H5.828a5.11 5.11 0 0 0-5.11 5.11zM51 9.03a8.937 8.937 0 1 0 17.875 0 8.937 8.937 0 0 0-17.875 0z" filter="url(#yfrra)" mask="url(&quot;#yfrrb&quot;)"/></g></g></svg>